PathFileType	4	(X/Y/Z)	C:\Users\86182\Documents\cortex\Trimmed_M1_H1.trc
DataRate	CameraRate	NumFrames	NumMarkers	Units	OrigDataRate	OrigDataStartFrame	OrigNumFrames
100.00	100.00	       126	2	mm	100.00	181	       901
Frame#	Time	gripper			box			
		X1	Y1	Z1	X2	Y2	Z2	

181	1.800	200.28290	195.27838	232.52896	201.91312	194.39326	94.47926	
182	1.810	200.25832	195.28537	232.95384	201.88942	194.39705	94.88464	
183	1.820	200.23572	195.29132	233.37427	201.86305	194.40034	95.28870	
184	1.830	200.21567	195.29759	233.79083	201.83514	194.40300	95.68973	
185	1.840	200.19873	195.30460	234.20447	201.80692	194.40417	96.08847	
186	1.850	200.18730	195.31152	234.61575	201.77855	194.40373	96.48682	
187	1.860	200.18362	195.31786	235.02562	201.75128	194.40329	96.88509	
188	1.870	200.18729	195.32460	235.43690	201.72960	194.40524	97.28040	
189	1.880	200.19632	195.33380	235.85413	201.72064	194.41168	97.66734	
190	1.890	200.21001	195.34729	236.28072	201.73210	194.42400	98.04060	
191	1.900	200.22913	195.36543	236.71683	201.77200	194.44284	98.39796	
192	1.910	200.25349	195.38687	237.16052	201.85059	194.46748	98.74152	
193	1.920	200.28032	195.40944	237.60991	201.97881	194.49631	99.07500	
194	1.930	200.30513	195.43167	238.06354	202.16183	194.52824	99.39973	
195	1.940	200.32425	195.45274	238.51997	202.39130	194.56282	99.71605	
196	1.950	200.33621	195.47173	238.97729	202.63753	194.59836	100.03232	
197	1.960	200.34154	195.48785	239.43304	202.84195	194.63065	100.37417	
198	1.970	200.34154	195.50122	239.88492	202.92926	194.65454	100.77769	
199	1.980	200.33678	195.51295	240.33107	202.86127	194.66772	101.25861	
200	1.990	200.32593	195.52435	240.76944	202.67381	194.67163	101.79284	
201	2.000	200.30722	195.53561	241.19797	202.43790	194.66826	102.33871	
202	2.010	200.28151	195.54543	241.61670	202.20700	194.65897	102.86623	
203	2.020	200.25352	195.55217	242.02902	202.00926	194.64650	103.36299	
204	2.030	200.22899	195.55557	242.43964	201.85718	194.63467	103.83003	
205	2.040	200.21049	195.55690	242.85181	201.75204	194.62602	104.27576	
206	2.050	200.19684	195.55717	243.26656	201.68755	194.62099	104.70827	
207	2.060	200.18593	195.55542	243.68335	201.65543	194.61885	105.13155	
208	2.070	200.17760	195.54982	244.10217	201.65074	194.61902	105.54704	
209	2.080	200.17346	195.53981	244.52519	201.67360	194.62193	105.95525	
210	2.090	200.17432	195.52599	244.95561	201.72784	194.62880	106.35472	
211	2.100	200.17842	195.50890	245.39392	201.81888	194.64006	106.74151	
212	2.110	200.18361	195.48932	245.83670	201.95222	194.65463	107.11024	
213	2.120	200.18938	195.46860	246.28030	202.13091	194.67139	107.45622	
214	2.130	200.19539	195.44818	246.72371	202.34874	194.69009	107.78002	
215	2.140	200.20013	195.42921	247.16635	202.58011	194.70990	108.09412	
216	2.150	200.20215	195.41273	247.60585	202.77101	194.72716	108.42743	
217	2.160	200.20041	195.39937	248.03900	202.85091	194.73657	108.81628	
218	2.170	200.19308	195.38889	248.46390	202.78394	194.73576	109.27509	
219	2.180	200.17815	195.38084	248.88156	202.60416	194.72740	109.78065	
220	2.190	200.15627	195.37473	249.29541	202.37900	194.71623	110.29624	
221	2.200	200.13098	195.36964	249.70821	202.15912	194.70619	110.79823	
222	2.210	200.10490	195.36430	250.11966	201.96960	194.69928	111.27643	
223	2.220	200.07726	195.35764	250.52902	201.81856	194.69524	111.72691	
224	2.230	200.04697	195.34959	250.93814	201.70311	194.69194	112.14985	
225	2.240	200.01675	195.34097	251.34996	201.61427	194.68726	112.55000	
226	2.250	199.99133	195.33171	251.76552	201.54265	194.68094	112.93551	
227	2.260	199.97296	195.32091	252.18437	201.48303	194.67442	113.31506	
228	2.270	199.96065	195.30966	252.60698	201.43567	194.66931	113.69580	
229	2.280	199.95290	195.30191	253.03500	201.40349	194.66678	114.08308	
230	2.290	199.94934	195.30084	253.46988	201.38686	194.66783	114.48076	
231	2.300	199.95023	195.30609	253.91187	201.38100	194.67297	114.89067	
232	2.310	199.95442	195.31442	254.35934	201.37935	194.68198	115.31241	
233	2.320	199.95824	195.32239	254.80884	201.37794	194.69395	115.74419	
234	2.330	199.95740	195.32825	255.25699	201.37582	194.70807	116.18342	
235	2.340	199.95076	195.33269	255.70226	201.37218	194.72388	116.62648	
236	2.350	199.94078	195.33742	256.14423	201.36508	194.74052	117.06937	
237	2.360	199.93085	195.34338	256.58221	201.35249	194.75659	117.50912	
238	2.370	199.92326	195.35051	257.01541	201.33315	194.77161	117.94429	
239	2.380	199.91837	195.35846	257.44376	201.30659	194.78735	118.37440	
240	2.390	199.91327	195.36684	257.86804	201.27315	194.80550	118.80009	
241	2.400	199.90385	195.37498	258.28964	201.23428	194.82472	119.22272	
242	2.410	199.88918	195.38252	258.70981	201.19357	194.84106	119.64221	
243	2.420	199.87231	195.38924	259.12833	201.15622	194.85114	120.05693	
244	2.430	199.85686	195.39465	259.54410	201.12674	194.85414	120.46674	
245	2.440	199.84445	195.39868	259.95746	201.10637	194.85147	120.87497	
246	2.450	199.83574	195.40215	260.37036	201.09283	194.84573	121.28635	
247	2.460	199.83211	195.40611	260.78476	201.08311	194.84007	121.70300	
248	2.470	199.83530	195.41110	261.20178	201.07614	194.83670	122.12313	
249	2.480	199.84532	195.41734	261.62250	201.07289	194.83627	122.54456	
250	2.490	199.86011	195.42528	262.04791	201.07481	194.83907	122.96835	
251	2.500	199.87709	195.43527	262.47867	201.08171	194.84576	123.39771	
252	2.510	199.89404	195.44737	262.91437	201.09048	194.85658	123.83453	
253	2.520	199.90758	195.46194	263.35431	201.09650	194.87071	124.27749	
254	2.530	199.91283	195.47987	263.79749	201.09602	194.88699	124.72357	
255	2.540	199.90608	195.50185	264.24271	201.08698	194.90439	125.17076	
256	2.550	199.88730	195.52782	264.68903	201.06836	194.92166	125.61848	
257	2.560	199.85907	195.55692	265.13541	201.04027	194.93781	126.06568	
258	2.570	199.82375	195.58708	265.58017	201.00256	194.95224	126.50971	
259	2.580	199.78305	195.61533	266.02087	200.95456	194.96384	126.94759	
260	2.590	199.74011	195.63893	266.45511	200.89775	194.97047	127.37819	
261	2.600	199.69928	195.65659	266.88171	200.83803	194.97029	127.80247	
262	2.610	199.66344	195.66887	267.30139	200.78343	194.96350	128.22183	
263	2.620	199.63284	195.67781	267.71591	200.73997	194.95302	128.63699	
264	2.630	199.60738	195.68561	268.12659	200.70876	194.94264	129.04813	
265	2.640	199.58896	195.69362	268.53433	200.68668	194.93443	129.45557	
266	2.650	199.58041	195.70175	268.94092	200.67055	194.92764	129.86008	
267	2.660	199.58235	195.70886	269.34943	200.66080	194.92015	130.26245	
268	2.670	199.59341	195.71420	269.76239	200.66025	194.91129	130.66446	
269	2.680	199.61250	195.71815	270.17981	200.66998	194.90273	131.06995	
270	2.690	199.63869	195.72119	270.59985	200.68674	194.89662	131.48279	
271	2.700	199.66977	195.72321	271.02118	200.70468	194.89424	131.90295	
272	2.710	199.70270	195.72458	271.44415	200.72066	194.89639	132.32707	
273	2.720	199.73550	195.72649	271.87039	200.73654	194.90318	132.75302	
274	2.730	199.76700	195.72963	272.30157	200.75461	194.91307	133.18167	
275	2.740	199.79536	195.73364	272.73813	200.77333	194.92407	133.61392	
276	2.750	199.81837	195.73839	273.17929	200.78940	194.93539	134.04733	
277	2.760	199.83441	195.74446	273.62372	200.80110	194.94690	134.47656	
278	2.770	199.84294	195.75259	274.06970	200.80826	194.95789	134.89682	
279	2.780	199.84451	195.76347	274.51474	200.81061	194.96739	135.30722	
280	2.790	199.84004	195.77766	274.95615	200.80782	194.97589	135.71133	
281	2.800	199.82986	195.79482	275.39209	200.80049	194.98524	136.11362	
282	2.810	199.81393	195.81357	275.82214	200.78981	194.99669	136.51526	
283	2.820	199.79242	195.83209	276.24722	200.77559	195.00937	136.91432	
284	2.830	199.76515	195.84825	276.66907	200.75656	195.02113	137.30983	
285	2.840	199.73198	195.85992	277.08841	200.73376	195.03101	137.70523	
286	2.850	199.69504	195.86575	277.50510	200.71101	195.03975	138.10591	
287	2.860	199.65846	195.86540	277.92029	200.69162	195.04825	138.51398	
288	2.870	199.62544	195.85953	278.33734	200.67661	195.05638	138.92731	
289	2.880	199.59698	195.84962	278.75949	200.66682	195.06372	139.34308	
290	2.890	199.57411	195.83743	279.18701	200.66446	195.07060	139.76028	
291	2.900	199.55957	195.82378	279.61780	200.67131	195.07822	140.17950	
292	2.910	199.55602	195.80844	280.04974	200.68625	195.08748	140.60167	
293	2.920	199.56366	195.79137	280.48239	200.70569	195.09795	141.02652	
294	2.930	199.58044	195.77402	280.91583	200.72650	195.10796	141.45197	
295	2.940	199.60384	195.75856	281.34888	200.74840	195.11569	141.87531	
296	2.950	199.63229	195.74626	281.77930	200.77324	195.12094	142.29608	
297	2.960	199.66507	195.73729	282.20667	200.80240	195.12550	142.71710	
298	2.970	199.69995	195.73126	282.63412	200.83379	195.13156	143.14108	
299	2.980	199.73175	195.72754	283.06467	200.86172	195.13908	143.56705	
300	2.990	199.75423	195.72517	283.49731	200.88034	195.14590	143.99129	
301	3.000	199.76395	195.72310	283.92908	200.88750	195.15047	144.41125	
302	3.010	199.76149	195.72054	284.35846	200.88466	195.15355	144.82755	
303	3.020	199.74953	195.71782	284.78564	200.87303	195.15616	145.24240	
304	3.030	199.73056	195.71628	285.21100	200.85249	195.15700	145.65689	
305	3.040	199.70598	195.71710	285.63379	200.82449	195.15334	146.06934	
306	3.050	199.67622	195.71965	286.05212	200.79280	195.14333	146.47682	
